<?xml version="1.0" encoding="UTF-8" standalone="no"?>
<!-- Created with Inkscape (http://www.inkscape.org/) -->

<svg
   width="45mm"
   height="64mm"
   viewBox="0 0 45 64"
   version="1.1"
   id="svg5"
   inkscape:version="1.1.2 (b8e25be833, 2022-02-05)"
   sodipodi:docname="vetor5.svg"
   xmlns:inkscape="http://www.inkscape.org/namespaces/inkscape"
   xmlns:sodipodi="http://sodipodi.sourceforge.net/DTD/sodipodi-0.dtd"
   xmlns="http://www.w3.org/2000/svg"
   xmlns:svg="http://www.w3.org/2000/svg">
  <sodipodi:namedview
     id="namedview7"
     pagecolor="#ffffff"
     bordercolor="#666666"
     borderopacity="1.0"
     inkscape:pageshadow="2"
     inkscape:pageopacity="0.0"
     inkscape:pagecheckerboard="0"
     inkscape:document-units="mm"
     showgrid="false"
     inkscape:zoom="0.92470539"
     inkscape:cx="-37.849893"
     inkscape:cy="115.71253"
     inkscape:window-width="1366"
     inkscape:window-height="705"
     inkscape:window-x="-8"
     inkscape:window-y="-8"
     inkscape:window-maximized="1"
     inkscape:current-layer="layer1" />
  <defs
     id="defs2" />
  <g
     inkscape:label="Camada 1"
     inkscape:groupmode="layer"
     id="layer1">
    <path
       style="fill:#000000;stroke:#000000;stroke-width:0.296028px;stroke-linecap:butt;stroke-linejoin:miter;stroke-opacity:1"
       d="M 23.664722,4.9570463 C 20.538809,3.0122047 15.751746,-0.95265022 9.8401057,2.3002905 7.0289814,3.8471408 3.242327,10.750399 4.368501,15.300546 c 1.1261742,4.550147 2.252348,9.782816 0.9009391,13.195427 -1.3514086,3.412609 -6.3065747,16.380529 -4.0542265,22.750734 2.2523481,6.370207 9.0093934,13.195425 15.9916734,11.375368 6.982279,-1.82006 9.703796,-1.362991 15.315966,-3.185103 6.306576,-2.047567 7.657983,-4.095133 9.009392,-8.190265 1.351408,-4.095134 4.729931,-14.56047 0.45047,-20.475663 -4.27946,-5.91519 -4.206123,-9.503659 -3.530418,-12.91627 0.675704,-3.41261 -0.394741,-7.299912 -2.803325,-9.8930825 C 33.113956,5.232398 26.741649,6.6679292 23.664722,4.9570463 Z"
       id="path7161"
       sodipodi:nodetypes="cssssssssssc"
       inkscape:export-filename="C:\Users\User\Desktop\canil&amp;catil\img\vetor5.png"
       inkscape:export-xdpi="145.17"
       inkscape:export-ydpi="145.17" />
  </g>
</svg>
